<svg width="34" height="35" viewBox="0 0 34 35" fill="none" xmlns="http://www.w3.org/2000/svg">
<g filter="url(#filter0_d_1_34)">
<path fill-rule="evenodd" clip-rule="evenodd" d="M16.7065 1.16699C20.0583 1.16699 23.2083 2.47016 25.5743 4.83733C30.465 9.72799 30.465 17.6847 25.5743 22.5753C23.1768 24.974 19.9486 26.2433 16.6785 26.2433C14.8958 26.2433 13.1015 25.8665 11.4226 25.0895C10.928 24.8912 10.4648 24.7045 10.1323 24.7045C9.74964 24.7068 9.23514 24.8842 8.73814 25.0557C7.71847 25.4057 6.44914 25.842 5.50997 24.9063C4.5743 23.9695 5.00597 22.7037 5.35364 21.6852C5.52514 21.1835 5.7013 20.6655 5.7013 20.2735C5.7013 19.9515 5.54614 19.5408 5.30814 18.9493C3.12297 14.2302 4.1333 8.54266 7.8398 4.83849C10.2058 2.47133 13.3546 1.16699 16.7065 1.16699ZM16.7076 2.91699C13.8225 2.91699 11.1123 4.03933 9.07647 6.07633C5.8868 9.26366 5.0188 14.1578 6.91464 18.2563C7.18764 18.9318 7.4513 19.5898 7.4513 20.2735C7.4513 20.956 7.2168 21.6432 7.0103 22.2498C6.83997 22.7492 6.58214 23.5028 6.7478 23.6685C6.90997 23.8365 7.6683 23.5717 8.1688 23.4002C8.76964 23.1948 9.45097 22.9592 10.1265 22.9545C10.8031 22.9545 11.4413 23.2112 12.1168 23.483C16.255 25.3963 21.1491 24.526 24.3376 21.3387C28.5446 17.1293 28.5446 10.2822 24.3376 6.07516C22.3006 4.03816 19.5916 2.91699 16.7076 2.91699ZM21.3124 13.0235C21.9564 13.0235 22.479 13.545 22.479 14.1901C22.479 14.8353 21.9564 15.3568 21.3124 15.3568C20.6684 15.3568 20.141 14.8353 20.141 14.1901C20.141 13.545 20.6579 13.0235 21.3019 13.0235H21.3124ZM16.6354 13.0235C17.2794 13.0235 17.8021 13.545 17.8021 14.1901C17.8021 14.8353 17.2794 15.3568 16.6354 15.3568C15.9914 15.3568 15.4641 14.8353 15.4641 14.1901C15.4641 13.545 15.9798 13.0235 16.6249 13.0235H16.6354ZM11.958 13.0235C12.602 13.0235 13.1247 13.545 13.1247 14.1901C13.1247 14.8353 12.602 15.3568 11.958 15.3568C11.314 15.3568 10.7867 14.8353 10.7867 14.1901C10.7867 13.545 11.3035 13.0235 11.9475 13.0235H11.958Z" fill="black" fill-opacity="0.6"/>
</g>
<defs>
<filter id="filter0_d_1_34" x="-1" y="0" width="36" height="36" filterUnits="userSpaceOnUse" color-interpolation-filters="sRGB">
<feFlood flood-opacity="0" result="BackgroundImageFix"/>
<feColorMatrix in="SourceAlpha" type="matrix" values="0 0 0 0 0 0 0 0 0 0 0 0 0 0 0 0 0 0 127 0" result="hardAlpha"/>
<feOffset dy="4"/>
<feGaussianBlur stdDeviation="2"/>
<feComposite in2="hardAlpha" operator="out"/>
<feColorMatrix type="matrix" values="0 0 0 0 0 0 0 0 0 0 0 0 0 0 0 0 0 0 0.25 0"/>
<feBlend mode="normal" in2="BackgroundImageFix" result="effect1_dropShadow_1_34"/>
<feBlend mode="normal" in="SourceGraphic" in2="effect1_dropShadow_1_34" result="shape"/>
</filter>
</defs>
</svg>
