<svg width="23" height="26" viewBox="0 0 23 26" fill="none" xmlns="http://www.w3.org/2000/svg">
<path fill-rule="evenodd" clip-rule="evenodd" d="M9.045 22.457C9.64933 23.1301 10.4252 23.5 11.2302 23.5H11.2313C12.0398 23.5 12.8192 23.1301 13.4247 22.4558C13.749 22.0976 14.302 22.0685 14.6602 22.3916C15.0195 22.7148 15.0487 23.269 14.7255 23.6271C13.7828 24.6736 12.5427 25.25 11.2313 25.25H11.229C9.92117 25.2488 8.68334 24.6725 7.74417 23.626C7.421 23.2678 7.45017 22.7136 7.8095 22.3916C8.16884 22.0673 8.72184 22.0965 9.045 22.457ZM11.2883 0.166626C16.4741 0.166626 19.9578 4.20563 19.9578 7.97746C19.9578 9.91763 20.4513 10.7401 20.9751 11.6128C21.4931 12.4738 22.0799 13.4515 22.0799 15.2995C21.6728 20.021 16.7436 20.406 11.2883 20.406C5.83294 20.406 0.902603 20.021 0.500088 15.3741C0.496604 13.4515 1.08344 12.4738 1.60144 11.6128L1.78431 11.305C2.23456 10.5311 2.61877 9.68937 2.61877 7.97746C2.61877 4.20563 6.10244 0.166626 11.2883 0.166626ZM11.2883 1.91663C7.21077 1.91663 4.36877 5.11096 4.36877 7.97746C4.36877 10.403 3.6956 11.5241 3.1006 12.5135C2.62344 13.308 2.2466 13.9356 2.2466 15.2995C2.44144 17.4998 3.89394 18.656 11.2883 18.656C18.6418 18.656 20.1398 17.4485 20.3334 15.2236C20.3299 13.9356 19.9531 13.308 19.4759 12.5135C18.8809 11.5241 18.2078 10.403 18.2078 7.97746C18.2078 5.11096 15.3658 1.91663 11.2883 1.91663Z" fill="black" fill-opacity="0.6"/>
</svg>
