<svg width="20" height="20" viewBox="0 0 20 20" fill="none" xmlns="http://www.w3.org/2000/svg">
<path fill-rule="evenodd" clip-rule="evenodd" d="M9.78234 1.66663C14.2573 1.66663 17.8973 5.30663 17.8973 9.78163C17.8973 11.8929 17.0871 13.8185 15.7612 15.2637L18.3702 17.8672C18.6143 18.1114 18.6152 18.5064 18.371 18.7505C18.2493 18.8739 18.0885 18.9347 17.9285 18.9347C17.7693 18.9347 17.6093 18.8739 17.4868 18.7522L14.8464 16.1191C13.4574 17.2315 11.6962 17.8975 9.78234 17.8975C5.30734 17.8975 1.6665 14.2566 1.6665 9.78163C1.6665 5.30663 5.30734 1.66663 9.78234 1.66663ZM9.78234 2.91663C5.9965 2.91663 2.9165 5.99579 2.9165 9.78163C2.9165 13.5675 5.9965 16.6475 9.78234 16.6475C13.5673 16.6475 16.6473 13.5675 16.6473 9.78163C16.6473 5.99579 13.5673 2.91663 9.78234 2.91663Z" fill="#1C1C1C" fill-opacity="0.7"/>
</svg>
